<?xml version="1.0" encoding="utf-8"?>
<!-- Generator: Adobe Illustrator 23.0.4, SVG Export Plug-In . SVG Version: 6.00 Build 0)  -->
<svg version="1.1" id="Capa_1" xmlns="http://www.w3.org/2000/svg" xmlns:xlink="http://www.w3.org/1999/xlink" x="0px" y="0px"
	 viewBox="0 0 178 38" style="enable-background:new 0 0 178 38;" xml:space="preserve">
<style type="text/css">
	.st0{fill:#0279AF;}
	.st1{fill:#59595C;}
	.st2{fill:none;}
</style>
<path class="st0" d="M19.2,8.5h5.4C23,4.2,18.3,0.6,12.9,0.6c-1.7,0-3.4,0.3-4.7,0.9l2.1,1.2L9.8,5.5c0.9-0.5,2-0.6,3.1-0.6
	c1.8,0,3.4,0.6,4.6,1.5C18.1,7.1,18.7,7.8,19.2,8.5 M24.5,18.4c0.9-2,1.1-4.4,1.1-6H11.2v3.8h8.9c-0.3,1.4-1.2,2.8-2.4,3.7
	c-1.2,0.9-2.9,1.4-4.7,1.4c-3.8,0-7.8-2.9-7.8-8.3c0-2.8,1.2-4.9,2.9-6.3l0.5-2.9L6.3,2.6c-3.7,2-6,5.8-6,10.4
	c0,6.9,5.5,12.4,12.6,12.4C17.2,25.4,22.4,23.3,24.5,18.4 M27.8,25H32V1.3h-4.3V25z M49,16.3c0,3.1-2.3,5.4-5.2,5.4
	s-5.2-2.3-5.2-5.4l0,0c0-3.1,2.3-5.4,5.2-5.4C46.6,10.7,49,13,49,16.3 M53.2,16.3c0-4.6-3.4-9.3-9.5-9.3s-9.5,4.7-9.5,9.3l0,0
	c0,4.6,3.4,9.3,9.5,9.3C50,25.6,53.2,20.7,53.2,16.3 M70.3,16.3c0,2.8-2,5.5-5.4,5.5c-3.2,0-5.2-2.4-5.2-5.5c0-2.9,2-5.5,5.4-5.5
	C68,10.7,70.3,13.2,70.3,16.3L70.3,16.3z M74.5,16.1c0-6.3-4.6-9.3-8.9-9.3c-1.7,0-4.1,0.6-6,2.8V7.4V1.3h-4.1v23.9h4.1v-2.6
	c0.9,1.7,3.1,3.1,5.8,3.1C70.3,25.6,74.5,22.1,74.5,16.1 M90.8,16.4c0,0.9-0.3,1.7-0.6,2.4c-0.8,1.7-2.3,2.9-4.7,2.9
	c-3.8,0-5.4-3.2-5.4-5.4l0,0c0-2.8,2-5.5,5.4-5.5c2.6,0,4.1,1.4,4.9,3.1C90.7,14.6,90.8,15.5,90.8,16.4 M90.7,25H95V7.4h-4.3V10
	c-0.8-1.4-2.8-3.1-6-3.1c-4.9,0-9,3.8-9,9.3c0,5.1,3.4,9.3,9,9.3c2.4,0,4.9-1.1,6-3.1V25z M102.5,1.3h-4.3v23.9h4.3V1.3z"/>
<path class="st1" d="M123,16.3h-9.5l4.7-11.9L123,16.3z M129.4,25.1l-9.8-23.9H117l-10,23.9h2.9l2.8-6.7h11.2l2.8,6.7H129.4z
	 M134.8,9.7h3.8V7.8h-3.8V1.3h-2.3v6.6H129v1.8h3.4v15.5h2.3V9.7H134.8z M140.1,25.1h2.4V1.3h-2.4V25.1z M161.3,16.4
	c0,0.9-0.2,1.8-0.6,2.8c-0.9,2.4-3.2,4.3-6.3,4.3c-4.7,0-6.9-3.8-6.9-6.9l0,0c0-3.8,2.9-6.9,6.9-6.9c3.1,0,5.4,1.8,6.3,4.1
	C161.1,14.4,161.4,15.5,161.3,16.4 M161.3,25.1h2.4V7.8h-2.4v3.5c-0.8-2-3.4-4.1-7-4.1c-5.4,0-9,4.1-9,9.2c0,4.7,3.4,9.2,9,9.2
	c3.1,0,5.7-1.4,7-4.1V25.1z M175,12.1h2.3c-0.2-3.5-2.9-4.9-5.4-4.9c-2.9,0-5.4,1.8-5.4,4.9c0,2.8,2,3.7,4.4,4.4
	c3.1,0.9,4.3,1.7,4.3,3.7c0,1.8-1.4,3.2-3.4,3.2c-1.7,0-3.5-1.1-3.7-3.5H166c0,3.7,3.1,5.4,6,5.4c3.2,0,5.8-2.3,5.7-5.5
	c-0.2-3.7-2.9-4.4-5.4-5.1c-2.1-0.6-3.4-1.2-3.4-2.9c0-1.5,1.1-2.8,3.1-2.8C173.8,9.2,175,10.3,175,12.1"/>
<path class="st0" d="M175,37.8h0.9v-2.8l1.8-4.6h-1.1l-1.4,3.7l-1.4-3.7h-1.1l1.8,4.6v2.8H175z M172.7,32.9
	c-0.2-1.5-0.9-2.6-2.4-2.6c-1.7,0-2.8,1.5-2.8,3.8s0.9,3.8,2.8,3.8c1.7,0,2.4-1.4,2.6-2.8V34H170v0.9h1.8c0,0.5,0,1.1-0.3,1.4
	c-0.3,0.5-0.8,0.8-1.2,0.8c-1.1,0-1.8-0.9-1.8-2.9s0.8-2.9,1.8-2.9c0.6,0,0.9,0.3,1.2,0.8c0.2,0.3,0.3,0.6,0.3,1.1h0.9V32.9z
	 M162.5,37.8h0.9v-6.4h0.6c0.5,0,0.9,0,1.1,0.3c0.5,0.3,0.5,0.8,0.5,1.2c0,0.5-0.2,0.8-0.5,1.1c-0.3,0.3-0.6,0.3-1.1,0.3
	c-0.2,0-0.2,0-0.3,0l1.7,3.5h1.1l-1.5-2.9c0.5-0.2,0.9-0.5,1.2-0.9c0.2-0.3,0.3-0.8,0.3-1.2c0-0.8-0.3-1.4-0.8-1.8
	c-0.3-0.3-0.8-0.5-1.8-0.5h-1.5v7.3H162.5z M157.6,37.8h3.5v-0.9h-2.4v-2.4h2.4v-0.9h-2.4v-2.1h2.4v-0.9h-3.5V37.8z M152.5,30.5
	h-1.1v7.3h0.9V32l2.8,5.8h1.1v-7.3h-0.9v5.7L152.5,30.5z M146.6,37.8h3.5v-0.9h-2.4v-2.4h2.4v-0.9h-2.4v-2.1h2.4v-0.9h-3.5V37.8z
	 M138.9,37.8h3.5v-0.9H140v-2.4h2.4v-0.9H140v-2.1h2.4v-0.9h-3.5V37.8z M134.8,37.8h3.2v-0.9h-2.3v-6.4h-0.9V37.8z M130.5,34.5h0.8
	c0.5,0,0.8,0,0.9,0.3c0.3,0.2,0.5,0.6,0.5,1.1c0,0.5-0.2,0.9-0.5,1.1c-0.2,0.2-0.5,0.2-0.8,0.2h-0.9V34.5z M130.5,31.3h0.6
	c0.5,0,0.8,0,0.8,0.2c0.2,0.2,0.3,0.5,0.3,0.9c0,0.5-0.2,0.8-0.5,0.9c-0.2,0.2-0.5,0.2-0.8,0.2h-0.5V31.3z M129.4,37.8h2
	c0.6,0,1.1-0.2,1.4-0.5c0.5-0.3,0.8-0.9,0.8-1.7c0-0.9-0.5-1.7-1.4-1.8c0.6-0.2,1.1-0.6,1.1-1.5c0-0.6-0.2-1.1-0.6-1.4
	c-0.3-0.3-0.8-0.5-1.4-0.5h-1.7v7.3H129.4z M126.8,34.9h-1.5l0.8-3.2L126.8,34.9z M125.1,35.9h2l0.6,2h1.1l-2.1-7.3h-0.9l-2.1,7.3
	h1.1L125.1,35.9z M117.5,37.8h0.9l1.2-6l1.2,6h0.9l1.7-7.3h-0.9l-1.2,5.8l-1.2-5.8h-0.9l-1.2,5.8l-1.2-5.8h-1.1L117.5,37.8z
	 M111.5,37.8h3.5v-0.9h-2.4v-2.4h2.4v-0.9h-2.4v-2.1h2.4v-0.9h-3.5V37.8z M106.5,30.5h-1.1v7.3h0.9V32l2.8,5.8h1.1v-7.3h-1.1v5.7
	L106.5,30.5z M100.5,37.8h3.5v-0.9h-2.6v-2.4h2.4v-0.9h-2.4v-2.1h2.4v-0.9h-3.5v7.3H100.5z M95.1,37.8H96v-6.4h0.6
	c0.5,0,0.9,0,1.1,0.3c0.5,0.3,0.5,0.8,0.5,1.2c0,0.5-0.2,0.8-0.5,1.1c-0.2,0.2-0.5,0.3-0.9,0.3c-0.2,0-0.2,0-0.3,0l1.7,3.5h1.1
	l-1.5-2.9c0.5-0.2,0.9-0.5,1.2-0.9c0.2-0.3,0.3-0.8,0.3-1.2c0-0.8-0.3-1.4-0.8-1.8c-0.3-0.3-0.8-0.5-1.8-0.5h-1.5
	C95.1,30.5,95.1,37.8,95.1,37.8z M87.2,37.8h0.9v-6.4h0.6c0.5,0,0.9,0,1.1,0.3c0.5,0.3,0.5,0.8,0.5,1.2c0,0.5-0.2,0.8-0.5,1.1
	s-0.6,0.3-1.1,0.3c-0.2,0-0.2,0-0.3,0l1.7,3.5h1.1l-1.5-2.9c0.5-0.2,0.9-0.5,1.2-0.9c0.2-0.3,0.3-0.8,0.3-1.2c0-0.8-0.3-1.4-0.8-1.8
	c-0.3-0.3-0.8-0.5-1.8-0.5H87v7.3H87.2z M81.7,34.2c0-2,0.6-2.9,1.7-2.9s1.7,0.9,1.7,2.9c0,2-0.6,2.9-1.7,2.9
	C82.3,37.1,81.7,36,81.7,34.2L81.7,34.2z M80.7,34.2c0,2.1,0.9,3.8,2.8,3.8s2.8-1.8,2.8-3.8c0-2.1-0.9-3.8-2.8-3.8
	C81.5,30.3,80.7,31.9,80.7,34.2L80.7,34.2z M76.6,37.8h0.9v-3.4h2.3v-0.9h-2.3v-2.1h2.3v-0.9h-3.2V37.8z"/>
<rect x="0.4" y="0.8" class="st2" width="177.6" height="31.2"/>
</svg>
